{
    "asset" : {
        "generator" : "Khronos glTF Blender I/O v1.2.75",
        "version" : "2.0"
    },
    "scene" : 0,
    "scenes" : [
        {
            "name" : "Scene",
            "nodes" : [
                0,
                1
            ]
        }
    ],
    "nodes" : [
        {
            "mesh" : 0,
            "name" : "LBR iisy 3 R760",
            "rotation" : [
                0,
                1,
                0,
                -4.371138828673793e-08
            ],
            "scale" : [
                0.0020000000949949026,
                0.0020000000949949026,
                0.0020000000949949026
            ],
            "translation" : [
                1,
                0,
                0
            ]
        },
        {
            "mesh" : 1,
            "name" : "Text",
            "rotation" : [
                0.7071067690849304,
                0,
                0,
                0.7071067690849304
            ],
            "translation" : [
                -1,
                0.75,
                0
            ]
        }
    ],
    "animations" : [
        {
            "channels" : [
                {
                    "sampler" : 0,
                    "target" : {
                        "node" : 1,
                        "path" : "rotation"
                    }
                }
            ],
            "name" : "TextAction",
            "samplers" : [
                {
                    "input" : 25,
                    "interpolation" : "LINEAR",
                    "output" : 26
                }
            ]
        }
    ],
    "materials" : [
        {
            "doubleSided" : true,
            "emissiveFactor" : [
                0,
                0,
                0
            ],
            "name" : "Material_0.001",
            "pbrMetallicRoughness" : {
                "baseColorFactor" : [
                    0.26274511218070984,
                    0.29411765933036804,
                    0.3019607961177826,
                    1
                ],
                "metallicFactor" : 0,
                "roughnessFactor" : 0.9666666388511658
            }
        },
        {
            "doubleSided" : true,
            "emissiveFactor" : [
                0,
                0,
                0
            ],
            "name" : "Material_1.001",
            "pbrMetallicRoughness" : {
                "baseColorFactor" : [
                    0.95686274766922,
                    0.95686274766922,
                    0.95686274766922,
                    1
                ],
                "metallicFactor" : 0,
                "roughnessFactor" : 0.9666666388511658
            }
        },
        {
            "doubleSided" : true,
            "emissiveFactor" : [
                0,
                0,
                0
            ],
            "name" : "Material_2.001",
            "pbrMetallicRoughness" : {
                "baseColorFactor" : [
                    0.5600000023841858,
                    0.5600000023841858,
                    0.5600000023841858,
                    1
                ],
                "metallicFactor" : 0,
                "roughnessFactor" : 0.9789181351661682
            }
        },
        {
            "doubleSided" : true,
            "emissiveFactor" : [
                0,
                0,
                0
            ],
            "name" : "Material_3.001",
            "pbrMetallicRoughness" : {
                "baseColorFactor" : [
                    1,
                    0.3499999940395355,
                    0,
                    1
                ],
                "metallicFactor" : 0,
                "roughnessFactor" : 0.9918350577354431
            }
        },
        {
            "doubleSided" : true,
            "emissiveFactor" : [
                0,
                0,
                0
            ],
            "name" : "Material_4.001",
            "pbrMetallicRoughness" : {
                "baseColorFactor" : [
                    0.9607843160629272,
                    0.250980406999588,
                    0.12941177189350128,
                    1
                ],
                "metallicFactor" : 0,
                "roughnessFactor" : 0.9666666388511658
            }
        },
        {
            "doubleSided" : true,
            "emissiveFactor" : [
                0,
                0,
                0
            ],
            "name" : "Material_5.001",
            "pbrMetallicRoughness" : {
                "baseColorFactor" : [
                    0.3499999940395355,
                    0.3499999940395355,
                    0.3499999940395355,
                    1
                ],
                "metallicFactor" : 0,
                "roughnessFactor" : 0.9918350577354431
            }
        },
        {
            "doubleSided" : true,
            "emissiveFactor" : [
                0,
                0,
                0
            ],
            "name" : "Material_6.001",
            "pbrMetallicRoughness" : {
                "baseColorFactor" : [
                    0.6000000238418579,
                    0.6000000238418579,
                    0.6000000238418579,
                    1
                ],
                "metallicFactor" : 0,
                "roughnessFactor" : 0.9789181351661682
            }
        },
        {
            "doubleSided" : true,
            "emissiveFactor" : [
                0,
                0,
                0
            ],
            "name" : "Material.001",
            "pbrMetallicRoughness" : {
                "baseColorFactor" : [
                    1,
                    0.10218467563390732,
                    0,
                    1
                ],
                "metallicFactor" : 0,
                "roughnessFactor" : 0.5
            }
        }
    ],
    "meshes" : [
        {
            "name" : "LBR iisy 3 R760",
            "primitives" : [
                {
                    "attributes" : {
                        "POSITION" : 0,
                        "NORMAL" : 1
                    },
                    "indices" : 2,
                    "material" : 0
                },
                {
                    "attributes" : {
                        "POSITION" : 3,
                        "NORMAL" : 4
                    },
                    "indices" : 5,
                    "material" : 1
                },
                {
                    "attributes" : {
                        "POSITION" : 6,
                        "NORMAL" : 7
                    },
                    "indices" : 8,
                    "material" : 2
                },
                {
                    "attributes" : {
                        "POSITION" : 9,
                        "NORMAL" : 10
                    },
                    "indices" : 11,
                    "material" : 3
                },
                {
                    "attributes" : {
                        "POSITION" : 12,
                        "NORMAL" : 13
                    },
                    "indices" : 14,
                    "material" : 4
                },
                {
                    "attributes" : {
                        "POSITION" : 15,
                        "NORMAL" : 16
                    },
                    "indices" : 17,
                    "material" : 5
                },
                {
                    "attributes" : {
                        "POSITION" : 18,
                        "NORMAL" : 19
                    },
                    "indices" : 20,
                    "material" : 6
                }
            ]
        },
        {
            "name" : "Text",
            "primitives" : [
                {
                    "attributes" : {
                        "POSITION" : 21,
                        "NORMAL" : 22,
                        "TEXCOORD_0" : 23
                    },
                    "indices" : 24,
                    "material" : 7
                }
            ]
        }
    ],
    "accessors" : [
        {
            "bufferView" : 0,
            "componentType" : 5126,
            "count" : 22548,
            "max" : [
                455.5,
                567.9215087890625,
                104.94383239746094
            ],
            "min" : [
                -210.94009399414062,
                -14.08033275604248,
                -104.94384002685547
            ],
            "type" : "VEC3"
        },
        {
            "bufferView" : 1,
            "componentType" : 5126,
            "count" : 22548,
            "type" : "VEC3"
        },
        {
            "bufferView" : 2,
            "componentType" : 5123,
            "count" : 81381,
            "type" : "SCALAR"
        },
        {
            "bufferView" : 3,
            "componentType" : 5126,
            "count" : 10261,
            "max" : [
                395.5,
                582.44091796875,
                176.7071533203125
            ],
            "min" : [
                -67.99238586425781,
                120.5,
                -104.05464935302734
            ],
            "type" : "VEC3"
        },
        {
            "bufferView" : 4,
            "componentType" : 5126,
            "count" : 10261,
            "type" : "VEC3"
        },
        {
            "bufferView" : 5,
            "componentType" : 5123,
            "count" : 36744,
            "type" : "SCALAR"
        },
        {
            "bufferView" : 6,
            "componentType" : 5126,
            "count" : 2427,
            "max" : [
                420.4617004394531,
                568.2745361328125,
                176.5686492919922
            ],
            "min" : [
                6.1120452880859375,
                333.9081726074219,
                -102.69297790527344
            ],
            "type" : "VEC3"
        },
        {
            "bufferView" : 7,
            "componentType" : 5126,
            "count" : 2427,
            "type" : "VEC3"
        },
        {
            "bufferView" : 8,
            "componentType" : 5123,
            "count" : 7437,
            "type" : "SCALAR"
        },
        {
            "bufferView" : 9,
            "componentType" : 5126,
            "count" : 332,
            "max" : [
                22.17133140563965,
                438.5273742675781,
                176.74009704589844
            ],
            "min" : [
                -23.09937286376953,
                333.8686218261719,
                170.8157958984375
            ],
            "type" : "VEC3"
        },
        {
            "bufferView" : 10,
            "componentType" : 5126,
            "count" : 332,
            "type" : "VEC3"
        },
        {
            "bufferView" : 11,
            "componentType" : 5123,
            "count" : 570,
            "type" : "SCALAR"
        },
        {
            "bufferView" : 12,
            "componentType" : 5126,
            "count" : 302,
            "max" : [
                305.1313781738281,
                537.099365234375,
                -99.50306701660156
            ],
            "min" : [
                200.47264099121094,
                519.2000122070312,
                -104.37651824951172
            ],
            "type" : "VEC3"
        },
        {
            "bufferView" : 13,
            "componentType" : 5126,
            "count" : 302,
            "type" : "VEC3"
        },
        {
            "bufferView" : 14,
            "componentType" : 5123,
            "count" : 510,
            "type" : "SCALAR"
        },
        {
            "bufferView" : 15,
            "componentType" : 5126,
            "count" : 819,
            "max" : [
                460.1000061035156,
                558.4006958007812,
                43.400699615478516
            ],
            "min" : [
                447.1000061035156,
                471.59930419921875,
                -43.400699615478516
            ],
            "type" : "VEC3"
        },
        {
            "bufferView" : 16,
            "componentType" : 5126,
            "count" : 819,
            "type" : "VEC3"
        },
        {
            "bufferView" : 17,
            "componentType" : 5123,
            "count" : 1686,
            "type" : "SCALAR"
        },
        {
            "bufferView" : 18,
            "componentType" : 5126,
            "count" : 2922,
            "max" : [
                460.5,
                565,
                50
            ],
            "min" : [
                414.29998779296875,
                465,
                -74.30000305175781
            ],
            "type" : "VEC3"
        },
        {
            "bufferView" : 19,
            "componentType" : 5126,
            "count" : 2922,
            "type" : "VEC3"
        },
        {
            "bufferView" : 20,
            "componentType" : 5123,
            "count" : 10446,
            "type" : "SCALAR"
        },
        {
            "bufferView" : 21,
            "componentType" : 5126,
            "count" : 3230,
            "max" : [
                1.377961277961731,
                0.05000000074505806,
                0.5079413652420044
            ],
            "min" : [
                -1.355833888053894,
                -0.05000000074505806,
                -0.39584606885910034
            ],
            "type" : "VEC3"
        },
        {
            "bufferView" : 22,
            "componentType" : 5126,
            "count" : 3230,
            "type" : "VEC3"
        },
        {
            "bufferView" : 23,
            "componentType" : 5126,
            "count" : 3230,
            "type" : "VEC2"
        },
        {
            "bufferView" : 24,
            "componentType" : 5123,
            "count" : 9360,
            "type" : "SCALAR"
        },
        {
            "bufferView" : 25,
            "componentType" : 5126,
            "count" : 90,
            "max" : [
                3
            ],
            "min" : [
                0.03333333333333333
            ],
            "type" : "SCALAR"
        },
        {
            "bufferView" : 26,
            "componentType" : 5126,
            "count" : 90,
            "type" : "VEC4"
        }
    ],
    "bufferViews" : [
        {
            "buffer" : 0,
            "byteLength" : 270576,
            "byteOffset" : 0
        },
        {
            "buffer" : 0,
            "byteLength" : 270576,
            "byteOffset" : 270576
        },
        {
            "buffer" : 0,
            "byteLength" : 162762,
            "byteOffset" : 541152
        },
        {
            "buffer" : 0,
            "byteLength" : 123132,
            "byteOffset" : 703916
        },
        {
            "buffer" : 0,
            "byteLength" : 123132,
            "byteOffset" : 827048
        },
        {
            "buffer" : 0,
            "byteLength" : 73488,
            "byteOffset" : 950180
        },
        {
            "buffer" : 0,
            "byteLength" : 29124,
            "byteOffset" : 1023668
        },
        {
            "buffer" : 0,
            "byteLength" : 29124,
            "byteOffset" : 1052792
        },
        {
            "buffer" : 0,
            "byteLength" : 14874,
            "byteOffset" : 1081916
        },
        {
            "buffer" : 0,
            "byteLength" : 3984,
            "byteOffset" : 1096792
        },
        {
            "buffer" : 0,
            "byteLength" : 3984,
            "byteOffset" : 1100776
        },
        {
            "buffer" : 0,
            "byteLength" : 1140,
            "byteOffset" : 1104760
        },
        {
            "buffer" : 0,
            "byteLength" : 3624,
            "byteOffset" : 1105900
        },
        {
            "buffer" : 0,
            "byteLength" : 3624,
            "byteOffset" : 1109524
        },
        {
            "buffer" : 0,
            "byteLength" : 1020,
            "byteOffset" : 1113148
        },
        {
            "buffer" : 0,
            "byteLength" : 9828,
            "byteOffset" : 1114168
        },
        {
            "buffer" : 0,
            "byteLength" : 9828,
            "byteOffset" : 1123996
        },
        {
            "buffer" : 0,
            "byteLength" : 3372,
            "byteOffset" : 1133824
        },
        {
            "buffer" : 0,
            "byteLength" : 35064,
            "byteOffset" : 1137196
        },
        {
            "buffer" : 0,
            "byteLength" : 35064,
            "byteOffset" : 1172260
        },
        {
            "buffer" : 0,
            "byteLength" : 20892,
            "byteOffset" : 1207324
        },
        {
            "buffer" : 0,
            "byteLength" : 38760,
            "byteOffset" : 1228216
        },
        {
            "buffer" : 0,
            "byteLength" : 38760,
            "byteOffset" : 1266976
        },
        {
            "buffer" : 0,
            "byteLength" : 25840,
            "byteOffset" : 1305736
        },
        {
            "buffer" : 0,
            "byteLength" : 18720,
            "byteOffset" : 1331576
        },
        {
            "buffer" : 0,
            "byteLength" : 360,
            "byteOffset" : 1350296
        },
        {
            "buffer" : 0,
            "byteLength" : 1440,
            "byteOffset" : 1350656
        }
    ],
    "buffers" : [
        {
            "byteLength" : 1352096,
            "uri" : "data:application/octet-stream;base64,"
        }
    ]
}
